# xmcd
#
# Track frame offsets:
#	182
#	11880
#	23905
#	39597
#	54807
#	68927
#	81057
#	97835
#	108930
#	124547
#
# Disc length: 1826 seconds
#
# Revision: 3
# Processed by: cddbd v1.5.2PL0 Copyright (c) Steve Scherf et al.
# Submitted via: audiograbber 1.83.01
#
DISCID=7107200a
DTITLE=Girls Next Door - How 'bout us
DYEAR=1989
DGENRE=Country
TTITLE0=He's gotta have me
TTITLE1=I called it love once
TTITLE2=How 'bout us 
TTITLE3=One of the boys
TTITLE4=Maybe you wouldn't be missin' me tonight
TTITLE5=Few good men
TTITLE6=How can they call this cheating
TTITLE7=It's too late 
TTITLE8=Last goodbye 
TTITLE9=Wasn't it you 
EXTD=
EXTT0=
EXTT1=
EXTT2=
EXTT3=
EXTT4=
EXTT5=
EXTT6=
EXTT7=
EXTT8=
EXTT9=
PLAYORDER=
